<?xml version="1.0" standalone="no"?><!DOCTYPE svg PUBLIC "-//W3C//DTD SVG 1.1//EN" "http://www.w3.org/Graphics/SVG/1.1/DTD/svg11.dtd"><svg t="1593741395346" class="icon" viewBox="0 0 1194 1024" version="1.1" xmlns="http://www.w3.org/2000/svg" p-id="851" xmlns:xlink="http://www.w3.org/1999/xlink" width="233.203125" height="200"><defs><style type="text/css"></style></defs><path d="M469.333333 0a298.666667 298.666667 0 1 0 0 597.333333 298.666667 298.666667 0 0 0 0-597.333333z m0 85.333333a213.333333 213.333333 0 1 1 0 426.666667 213.333333 213.333333 0 0 1 0-426.666667z" fill="#191F25" p-id="852"></path><path d="M469.333333 512c259.2 0 469.333333 210.133333 469.333334 469.333333a42.666667 42.666667 0 0 1-85.333334 0 384 384 0 0 0-768 0 42.666667 42.666667 0 0 1-85.333333 0c0-259.2 210.133333-469.333333 469.333333-469.333333zM810.666667 42.666667a256 256 0 0 1 155.434666 459.434666A384.085333 384.085333 0 0 1 1194.666667 853.333333a42.666667 42.666667 0 0 1-85.333334 0 298.666667 298.666667 0 0 0-298.666666-298.666666 42.666667 42.666667 0 0 1 0-85.333334 170.666667 170.666667 0 1 0 0-341.333333 42.666667 42.666667 0 0 1 0-85.333333z" fill="#191F25" p-id="853"></path><path d="M444.842667 700.586667l-56.874667 123.648c-7.168 15.573333-4.394667 35.626667 6.570667 47.018666l56.874666 59.264a23.722667 23.722667 0 0 0 35.84 0l56.874667-59.264c10.965333-11.392 13.738667-31.445333 6.570667-47.018666l-56.874667-123.605334c-11.008-23.936-37.973333-23.936-48.981333 0z" fill="#191F25" p-id="854"></path></svg>